<svg id="check" xmlns="http://www.w3.org/2000/svg" width="100.681" height="96.482" viewBox="0 0 100.681 96.482">
  <path id="Path_3" data-name="Path 3" d="M38.267,65.534A27.267,27.267,0,1,1,65.534,38.267,27.3,27.3,0,0,1,38.267,65.534Zm0-50.339A23.072,23.072,0,1,0,61.339,38.267,23.1,23.1,0,0,0,38.267,15.195Z" transform="translate(35.147 30.949)"/>
  <path id="Path_4" data-name="Path 4" d="M24.488,35.975A2.12,2.12,0,0,1,23,35.363l-8.39-8.39a2.1,2.1,0,1,1,2.966-2.966l6.8,6.8L37.589,15.718a2.1,2.1,0,0,1,3.159,2.764L26.065,35.262a2.093,2.093,0,0,1-1.51.713Z" transform="translate(44.731 43.728)"/>
  <path id="Path_5" data-name="Path 5" d="M39.851,59.728H8.39A8.4,8.4,0,0,1,0,51.339V9.39A8.4,8.4,0,0,1,8.39,1H83.9a8.4,8.4,0,0,1,8.39,8.39V36.657a2.1,2.1,0,1,1-4.195,0V9.39A4.2,4.2,0,0,0,83.9,5.195H8.39A4.2,4.2,0,0,0,4.195,9.39V51.339A4.2,4.2,0,0,0,8.39,55.534H39.851a2.1,2.1,0,0,1,0,4.195Z" transform="translate(0.003 -1)"/>
  <path id="Path_6" data-name="Path 6" d="M46.146,28.682a10.1,10.1,0,0,1-4.472-1.04L1.169,7.582A2.1,2.1,0,0,1,3.027,3.819l40.5,20.06a5.928,5.928,0,0,0,5.227,0l40.5-20.06a2.1,2.1,0,0,1,1.858,3.763l-40.5,20.06a10.1,10.1,0,0,1-4.472,1.04Z" transform="translate(0.001 7.302)"/>
</svg>
