<svg id="pending" xmlns="http://www.w3.org/2000/svg" width="100.677" height="96.482" viewBox="0 0 100.677 96.482">
  <path id="Path_9" data-name="Path 9" d="M38.267,65.534A27.267,27.267,0,1,1,65.534,38.267,27.3,27.3,0,0,1,38.267,65.534Zm0-50.339A23.072,23.072,0,1,0,61.339,38.267,23.1,23.1,0,0,0,38.267,15.195Z" transform="translate(35.144 30.949)"/>
  <path id="Path_10" data-name="Path 10" d="M31.682,30.78H19.1a2.1,2.1,0,0,1-2.1-2.1V16.1a2.1,2.1,0,1,1,4.195,0V26.585H31.682a2.1,2.1,0,1,1,0,4.195Z" transform="translate(54.313 40.534)"/>
  <path id="Path_11" data-name="Path 11" d="M39.851,59.728H8.39A8.4,8.4,0,0,1,0,51.339V9.39A8.4,8.4,0,0,1,8.39,1H83.9a8.4,8.4,0,0,1,8.39,8.39V36.657a2.1,2.1,0,1,1-4.195,0V9.39A4.2,4.2,0,0,0,83.9,5.195H8.39A4.2,4.2,0,0,0,4.195,9.39V51.339A4.2,4.2,0,0,0,8.39,55.534H39.851a2.1,2.1,0,0,1,0,4.195Z" transform="translate(0 -1)"/>
  <path id="Path_12" data-name="Path 12" d="M46.144,28.677a10.1,10.1,0,0,1-4.472-1.04L1.166,7.577A2.1,2.1,0,1,1,3.029,3.818l40.5,20.06a5.928,5.928,0,0,0,5.227,0l40.5-20.06a2.1,2.1,0,1,1,1.858,3.763l-40.5,20.056a10.1,10.1,0,0,1-4.472,1.04Z" transform="translate(0 7.307)"/>
</svg>
