<svg id="check" xmlns="http://www.w3.org/2000/svg" width="99.296" height="95.103" viewBox="0 0 99.296 95.103">
  <path id="Path_5" data-name="Path 5" d="M39.851,59.728H8.39A8.4,8.4,0,0,1,0,51.339V9.39A8.4,8.4,0,0,1,8.39,1H83.9a8.4,8.4,0,0,1,8.39,8.39V36.657a2.1,2.1,0,1,1-4.195,0V9.39A4.2,4.2,0,0,0,83.9,5.195H8.39A4.2,4.2,0,0,0,4.195,9.39V51.339A4.2,4.2,0,0,0,8.39,55.534H39.851a2.1,2.1,0,0,1,0,4.195Z" transform="translate(0.003 -1)"/>
  <path id="Path_6" data-name="Path 6" d="M46.146,28.682a10.1,10.1,0,0,1-4.472-1.04L1.169,7.582A2.1,2.1,0,0,1,3.027,3.819l40.5,20.06a5.928,5.928,0,0,0,5.227,0l40.5-20.06a2.1,2.1,0,0,1,1.858,3.763l-40.5,20.06a10.1,10.1,0,0,1-4.472,1.04Z" transform="translate(0.001 7.302)"/>
  <path id="processing-time" d="M0,13.911V8.928a2.076,2.076,0,0,1,4.153,0v3.378a26.578,26.578,0,0,1,49,14.271,2.076,2.076,0,0,1-4.153,0A22.426,22.426,0,0,0,7.4,14.949h2.775a2.076,2.076,0,0,1,0,4.153H5.19A5.2,5.2,0,0,1,0,13.911ZM53.152,39.241v4.879a2.076,2.076,0,1,1-4.153,0V40.684A26.574,26.574,0,0,1,26.472,53.153,26.488,26.488,0,0,1,0,26.576a2.076,2.076,0,1,1,4.153,0A22.36,22.36,0,0,0,45.649,38.2H42.874a2.076,2.076,0,1,1,0-4.153h5.087a5.2,5.2,0,0,1,5.191,5.191Zm0,0" transform="translate(46.143 41.95)"/>
</svg>
