<svg xmlns="http://www.w3.org/2000/svg" width="100.293" height="94.996" viewBox="0 0 100.293 94.996"><g transform="translate(832 -4032)"><g transform="translate(-6.267 9)"><path d="M38.267,65.534A27.267,27.267,0,1,1,65.534,38.267,27.267,27.267,0,0,1,38.267,65.534Zm0-50.339A23.072,23.072,0,1,0,61.339,38.267,23.072,23.072,0,0,0,38.267,15.195Z" transform="translate(-790.974 4052.462)"/><g transform="translate(-824.633 4022.729)"><text transform="translate(58.926 80)" font-size="27" font-family="SegoeUI, Segoe UI"><tspan x="0" y="0">Z</tspan></text><text transform="translate(71.926 73)" font-size="22" font-family="SegoeUI, Segoe UI"><tspan x="0" y="0">Z</tspan></text></g></g><g transform="translate(-832.003 4032)"><path d="M39.851,59.728H8.39A8.4,8.4,0,0,1,0,51.339V9.39A8.4,8.4,0,0,1,8.39,1H83.9a8.4,8.4,0,0,1,8.39,8.39V36.657a2.1,2.1,0,1,1-4.195,0V9.39a4.2,4.2,0,0,0-4.195-4.2H8.39A4.2,4.2,0,0,0,4.2,9.39V51.339a4.2,4.2,0,0,0,4.2,4.195H39.851a2.1,2.1,0,0,1,0,4.195Z" transform="translate(0.003 -1)"/><path d="M46.146,28.682a10.1,10.1,0,0,1-4.472-1.04L1.169,7.582A2.1,2.1,0,0,1,3.027,3.819l40.5,20.06a5.928,5.928,0,0,0,5.227,0l40.5-20.06a2.1,2.1,0,0,1,1.858,3.763l-40.5,20.06a10.1,10.1,0,0,1-4.472,1.04Z" transform="translate(0.001 7.302)"/></g></g></svg>